<svg version="1.1" id="Layer_1" xmlns="http://www.w3.org/2000/svg" xmlns:xlink="http://www.w3.org/1999/xlink" x="0px" y="0px"
	 width="100%" viewBox="0 0 512 480" enable-background="new 0 0 512 480" xml:space="preserve">
<path fill="#000000" opacity="1.000000" stroke="none" 
	d="
M345.463776,116.089218 
	C349.161346,118.233459 350.052643,121.674492 351.133850,125.004120 
	C351.990540,127.642235 352.190979,130.541870 354.370361,133.119095 
	C357.330902,131.258499 360.264374,129.438797 363.174133,127.581970 
	C373.376526,121.071426 381.219116,124.022850 384.350494,135.508072 
	C385.980072,141.485016 386.553680,147.540787 386.548431,153.735443 
	C386.540497,163.068100 381.752258,168.992645 373.769592,172.871277 
	C371.682587,173.885345 369.535736,174.776337 366.690277,176.048477 
	C369.720062,185.656631 372.736938,195.223801 375.813538,204.980316 
	C384.167542,204.503555 392.217468,203.736496 400.302917,205.466202 
	C425.417023,210.838837 443.682739,231.396744 447.541992,256.772369 
	C452.353577,288.409576 430.337860,319.666962 398.575226,324.784546 
	C361.371460,330.778839 331.234375,304.642548 327.625458,273.458710 
	C324.490387,246.368927 334.958740,225.752960 358.204285,211.709320 
	C361.545929,209.690491 362.830536,207.886978 360.966644,204.269089 
	C359.466522,201.357361 359.670349,197.751648 357.494873,195.040894 
	C354.573883,195.298737 353.220856,197.677612 351.398895,199.250122 
	C341.650452,207.663742 333.266266,217.380280 325.126465,227.304459 
	C318.994904,234.780136 316.611786,243.732025 315.366547,253.096146 
	C313.241760,269.074249 302.377441,282.102325 282.811401,281.479675 
	C266.982574,280.975952 251.396698,278.394531 235.696365,276.802734 
	C231.918716,276.419739 228.137222,276.074799 223.974991,275.675659 
	C220.275848,290.225525 213.343658,302.646576 201.613647,312.828278 
	C204.361771,312.828278 207.109894,312.828583 209.858017,312.828247 
	C229.354462,312.825775 248.850906,312.823242 268.347351,312.820343 
	C269.347168,312.820190 270.347107,312.805664 271.346771,312.816406 
	C278.389038,312.892090 281.702393,315.249298 281.702515,320.177032 
	C281.702637,324.741333 278.355530,327.053833 271.479645,327.056335 
	C231.820267,327.070679 192.160904,327.057037 152.501526,327.050201 
	C140.170502,327.048096 127.838753,327.110657 115.508850,326.989380 
	C111.484322,326.949829 107.229202,326.708862 105.835350,321.753754 
	C104.408470,316.681335 107.518616,313.010986 113.599602,312.813812 
	C119.691002,312.616364 125.793793,312.770447 132.961472,312.770447 
	C120.607452,303.215607 113.194496,291.736633 110.193329,277.500031 
	C103.757156,246.968674 122.518822,213.526352 158.554733,208.148636 
	C188.983459,203.607681 218.163116,223.941269 223.311218,256.046692 
	C223.936691,259.947327 225.356766,261.563660 229.584518,261.914368 
	C239.165909,262.709167 248.680923,264.293488 258.227997,265.517151 
	C262.520416,266.067352 266.748810,262.999390 269.407562,257.858887 
	C271.843964,253.148254 270.456573,249.179977 266.696777,246.338272 
	C255.422897,237.817245 244.257309,229.009705 231.071701,223.519928 
	C216.013412,217.250458 200.798920,211.356949 185.685730,205.217743 
	C183.579239,204.362061 181.473038,204.327240 179.318130,204.368591 
	C163.658493,204.669083 148.021027,204.033173 132.383881,203.327896 
	C129.464996,203.196243 126.656029,202.742615 124.818535,200.237381 
	C123.022003,197.788010 122.658539,194.945831 123.995209,192.197784 
	C125.478142,189.149017 128.245224,187.945969 131.488220,188.429230 
	C141.744034,189.957520 152.065384,189.823685 162.382095,189.878250 
	C163.669220,189.885056 165.025238,190.279663 166.510574,189.273834 
	C163.861191,184.436615 159.717484,180.326080 159.508118,174.248077 
	C159.223816,165.994583 164.306335,161.001297 172.446365,161.817657 
	C192.600891,163.838913 212.771393,165.701508 232.923553,167.745361 
	C240.844925,168.548737 248.744644,169.591019 256.635101,170.664948 
	C261.963013,171.390137 266.460052,173.858521 269.707550,178.175339 
	C271.366669,180.380768 272.952850,180.290741 275.265442,179.339157 
	C296.510193,170.597382 317.767487,161.883972 339.099457,153.358292 
	C343.171082,151.731018 344.585266,149.791153 342.803406,145.484756 
	C341.285400,141.816162 340.363312,137.882812 339.386841,134.013763 
	C338.531281,130.623657 336.840027,129.049774 333.075867,129.213913 
	C326.423187,129.504044 319.747192,129.371582 313.083496,129.262589 
	C307.477448,129.170898 304.033173,126.353409 303.943329,122.070480 
	C303.847473,117.503326 307.253845,114.747276 313.304352,114.703949 
	C321.968994,114.641899 330.634491,114.714638 339.299438,114.679337 
	C341.342896,114.671005 343.271973,115.011490 345.463776,116.089218 
M342.406403,253.946594 
	C341.259705,258.000549 341.281311,262.152893 341.300140,266.316345 
	C341.428894,294.818695 369.956085,315.734253 394.772949,310.865173 
	C415.659210,306.767303 432.116058,290.463043 433.629822,271.453339 
	C435.542633,247.431870 423.529083,227.884094 402.043518,220.576385 
	C395.299988,218.282745 388.287903,217.303787 381.286957,219.221909 
	C380.862061,221.789139 381.669830,223.634064 382.257202,225.522858 
	C386.252319,238.369675 390.282349,251.205887 394.207001,264.074249 
	C395.721375,269.039581 394.236328,272.619415 390.385651,273.989960 
	C386.175751,275.488373 382.627380,273.584137 380.861115,268.461395 
	C378.966278,262.965698 377.395020,257.358276 375.689087,251.797623 
	C372.839050,242.507385 369.994171,233.215546 367.132324,223.876068 
	C355.115143,228.757812 347.243744,238.311478 342.406403,253.946594 
M123.336746,261.837494 
	C119.857399,288.786987 146.176407,315.758240 177.196091,307.472168 
	C192.270096,303.445587 202.950806,293.949158 207.995010,278.804443 
	C208.789490,276.419159 209.833450,273.800049 205.631500,273.375763 
	C196.217194,272.425049 186.809525,271.402679 177.409164,270.322296 
	C171.969711,269.697144 166.515182,269.094543 161.131363,268.126343 
	C156.402924,267.276093 154.110016,263.913635 154.720947,259.557007 
	C155.284988,255.534607 158.429916,253.370117 163.144913,253.758331 
	C164.588379,253.877197 166.013733,254.761841 167.475815,253.720749 
	C176.783585,247.093109 186.103943,240.483139 196.010101,233.448395 
	C186.654724,224.782944 176.262924,220.650406 164.580170,221.605865 
	C142.140305,223.441071 126.579697,238.714355 123.336746,261.837494 
M309.211060,180.792770 
	C299.485291,184.713303 289.762909,188.642197 280.031067,192.547562 
	C277.977020,193.371857 275.835754,194.190948 275.573273,196.745438 
	C274.655853,205.674347 269.629303,212.924393 265.707184,220.570435 
	C263.878448,224.135452 263.535217,226.155579 267.283020,228.666656 
	C271.533264,231.514343 275.570221,234.804047 278.987488,238.749802 
	C284.334839,244.924210 285.718994,251.850998 283.667816,259.697693 
	C283.052765,262.050690 281.535980,264.204773 281.777435,266.788422 
	C283.723999,268.147034 285.683289,267.662720 287.612579,267.201019 
	C295.522827,265.307922 300.492493,259.166656 301.644135,249.770126 
	C303.241760,236.734329 307.789764,225.040955 316.532349,215.009613 
	C326.510590,203.560486 337.242188,192.893677 348.568542,182.798920 
	C350.359772,181.202469 353.078461,179.986847 352.272583,176.868622 
	C351.285126,173.047943 350.423218,169.145554 347.890137,165.291183 
	C335.180176,170.369949 322.544373,175.419098 309.211060,180.792770 
M256.270996,205.854813 
	C257.852325,202.753311 259.398376,199.633072 261.030640,196.558594 
	C261.789551,195.129135 262.112061,193.529770 261.333191,192.253098 
	C258.404022,187.451782 254.975388,183.582199 248.542679,183.291840 
	C238.935196,182.858231 229.350082,181.851028 219.767715,180.956528 
	C205.259521,179.602219 190.761856,178.135040 175.149277,176.607147 
	C179.833038,183.270096 183.816299,189.040131 190.776917,191.905746 
	C207.072235,198.614365 223.459824,205.112350 239.612900,212.148178 
	C250.539383,216.907486 250.389450,217.251724 256.270996,205.854813 
M366.293091,160.736816 
	C373.951691,156.327988 375.193146,150.718826 370.807098,140.341873 
	C358.100494,145.721191 356.762024,148.184723 361.029785,158.326675 
	C361.222839,158.785446 361.359070,159.268539 361.559509,159.723694 
	C362.427277,161.694077 363.869385,161.886261 366.293091,160.736816 
M204.320908,259.177643 
	C208.336304,260.239807 209.525940,258.469269 208.740646,254.750351 
	C208.030502,251.387329 207.221207,248.064499 204.397980,245.099167 
	C199.092789,248.974457 193.947617,252.732849 187.748413,257.261200 
	C194.090027,257.953217 198.828720,258.470306 204.320908,259.177643 
z"/>
</svg>