<svg version="1.1" id="Layer_1" xmlns="http://www.w3.org/2000/svg" xmlns:xlink="http://www.w3.org/1999/xlink" x="0px" y="0px"
	 width="100%" viewBox="0 0 576 512" enable-background="new 0 0 576 512" xml:space="preserve">
<path fill="#000000" opacity="1.000000" stroke="none" 
	d="
M491.531342,1.000000 
	C490.319305,1.934151 488.472260,1.890123 486.639801,1.890030 
	C429.820801,1.887119 373.001831,1.883947 316.182831,1.851313 
	C314.703339,1.850463 313.224030,1.520730 311.372314,1.172187 
	C371.020905,1.000000 431.041779,1.000000 491.531342,1.000000 
z"/>
<path fill="#000000" opacity="1.000000" stroke="none" 
	d="
M577.000000,1.500000 
	C563.909729,2.065691 550.815735,2.356921 537.371643,1.174018 
	C550.333313,1.000000 563.666687,1.000000 577.000000,1.500000 
z"/>
<path fill="#000000" opacity="1.000000" stroke="none" 
	d="
M137.380524,408.167969 
	C125.476944,403.867615 120.680138,397.012451 120.642029,384.720001 
	C120.632736,381.721100 120.596039,378.720886 120.664711,375.723419 
	C120.809715,369.394714 120.539711,363.316162 117.797379,357.252045 
	C114.071106,349.012146 115.552635,339.853424 115.113922,331.114563 
	C114.195099,312.812469 115.085381,294.482880 115.766068,276.180664 
	C116.069557,268.020569 118.874115,260.259155 121.356476,252.510406 
	C119.655991,250.571396 117.382835,250.715073 115.352753,250.199966 
	C101.155571,246.597626 93.470512,232.169281 99.356979,219.749802 
	C102.665527,212.769287 108.190437,208.530746 116.247742,208.611099 
	C126.340401,208.711731 136.527328,207.592514 146.355042,211.257339 
	C149.404694,212.394592 149.819229,209.255081 150.558334,207.459473 
	C156.576279,192.839188 162.510818,178.184143 168.387741,163.506439 
	C172.612045,152.956177 180.251297,146.921570 191.555023,145.589920 
	C196.992966,144.949295 202.422028,144.125000 207.880112,143.785492 
	C220.666199,142.990158 233.460861,142.231598 246.263687,141.825348 
	C281.559906,140.705307 316.870239,140.805481 352.157990,141.913406 
	C366.428284,142.361435 380.767670,142.485336 394.953888,144.652115 
	C406.375336,146.396591 414.593506,152.036499 418.963654,163.111450 
	C424.827484,177.971832 431.028961,192.699142 437.115631,207.471161 
	C437.868500,209.298325 438.806091,211.049408 439.883820,213.309021 
	C446.088562,210.997818 452.100403,208.752304 458.615723,208.255554 
	C463.831329,207.857864 468.992615,208.226547 474.011200,209.158539 
	C484.597565,211.124542 491.053070,219.012360 491.300049,229.368408 
	C491.532684,239.123047 484.541931,247.433365 473.701630,250.166016 
	C471.778168,250.650879 469.769440,250.798401 467.822510,252.059769 
	C467.951508,252.787003 467.970276,253.614914 468.247009,254.345078 
	C472.612030,265.863342 473.771271,277.905060 474.166748,290.079651 
	C474.772858,308.738586 473.921326,327.377197 473.185883,346.008331 
	C472.958160,351.776550 472.115784,357.620911 469.402374,362.927490 
	C468.453674,364.782776 468.365204,366.738129 468.372986,368.755768 
	C468.396149,374.753387 468.387970,380.751465 468.339539,386.748932 
	C468.246826,398.231903 459.816864,407.266968 448.342499,408.419983 
	C440.031403,409.255219 431.737549,409.575317 423.439331,408.408875 
	C412.518890,406.873871 405.440857,399.346466 404.620972,388.440277 
	C403.974762,379.843933 403.966705,379.946411 395.328522,379.270844 
	C389.850708,378.842438 384.375854,377.934113 379.303528,375.790649 
	C371.969330,372.691376 364.539124,371.833405 356.541016,371.987579 
	C331.725159,372.465851 306.894867,372.192596 282.070160,372.212219 
	C262.576904,372.227661 243.083572,372.273102 223.590424,372.233368 
	C220.356110,372.226776 217.395798,372.789734 214.476227,374.285553 
	C206.626465,378.307281 198.084213,379.639771 189.397095,380.138367 
	C186.871017,380.283356 185.209946,380.867523 185.344604,383.835510 
	C186.030777,398.959747 176.999146,409.112030 158.224518,409.060120 
	C151.402771,409.041260 144.563385,409.436249 137.380524,408.167969 
M420.308472,365.008026 
	C427.631165,365.893097 434.940979,365.043427 442.250732,364.791901 
	C451.012238,364.490479 456.006104,360.621033 457.607697,352.095245 
	C459.670319,341.115356 459.760773,329.947083 459.657684,318.795471 
	C459.595459,312.063782 459.290314,312.100494 452.477966,312.672150 
	C439.723999,313.742340 427.005951,315.621857 414.166016,315.279388 
	C397.790924,314.842712 388.278656,300.220367 394.635681,285.105774 
	C398.595428,275.690948 406.709320,271.147491 416.078278,268.791748 
	C422.990936,267.053589 430.098053,266.104523 437.073944,264.597351 
	C442.813385,263.357300 448.817780,263.185303 454.352417,261.041992 
	C452.040955,252.044754 444.265106,245.373688 435.469421,244.353867 
	C431.345520,243.875732 427.236938,243.267258 423.115631,242.765228 
	C405.631775,240.635422 388.141815,238.602417 370.569000,237.277252 
	C355.126709,236.112762 339.663788,235.539337 324.200134,234.843033 
	C305.376526,233.995438 286.544250,234.068161 267.739838,234.623047 
	C239.641129,235.452209 211.564590,237.042374 183.625137,240.368423 
	C172.251434,241.722382 160.814453,242.740601 149.614044,245.225143 
	C142.239395,246.861053 135.558762,254.204300 134.779175,261.253571 
	C136.796921,261.707916 138.852173,262.267670 140.942093,262.624176 
	C149.123596,264.019806 157.335358,265.245361 165.499176,266.735229 
	C174.246979,268.331635 182.713974,270.634857 189.327393,277.214569 
	C195.971924,283.825287 198.100952,293.379089 194.755295,302.054932 
	C191.234451,311.185028 183.958069,314.777069 174.836472,315.243774 
	C170.367264,315.472412 165.848892,315.062012 161.370178,314.715851 
	C152.254074,314.011169 143.153183,313.110901 134.038086,312.391602 
	C131.938797,312.225952 129.342865,311.854401 129.378128,315.235870 
	C129.504730,327.371582 128.337677,339.581726 130.712830,351.602112 
	C132.229126,359.275970 137.287170,364.300507 144.002167,364.576202 
	C156.980026,365.109100 169.978973,366.287323 182.954193,365.437500 
	C189.466263,365.010986 196.197586,365.254456 202.615311,362.899261 
	C201.852020,360.634491 200.143875,360.528595 198.521072,360.415436 
	C193.048187,360.033875 187.552078,359.893097 182.100357,359.321625 
	C173.684723,358.439392 165.168457,358.291901 156.886383,356.396881 
	C152.983582,355.503906 150.846725,352.678864 151.381165,348.670441 
	C151.914398,344.671021 154.577621,342.596558 158.706573,342.670807 
	C160.537155,342.703735 162.375183,342.719421 164.194794,342.897064 
	C173.448929,343.800293 182.696869,344.766663 191.949432,345.686310 
	C200.725021,346.558533 209.592346,346.919617 216.062561,354.440216 
	C218.287933,357.026917 221.640533,357.706299 225.182587,357.700348 
	C270.509247,357.624176 315.836029,357.622101 361.162781,357.658630 
	C364.621277,357.661407 368.352112,357.282471 370.593170,355.033478 
	C377.504364,348.097778 386.037445,346.424744 395.183960,345.950409 
	C398.165985,345.795746 401.134460,345.383942 404.109924,345.097870 
	C412.706879,344.271393 421.289673,343.160339 429.906525,342.727173 
	C435.598206,342.441071 438.947845,347.119659 436.943878,351.939484 
	C435.240112,356.037140 431.304199,356.880219 427.449829,357.297028 
	C419.683807,358.136871 411.828003,358.351410 404.135651,359.601715 
	C398.188538,360.568329 391.869110,359.308044 385.496918,362.612000 
	C397.123260,365.566437 408.299683,364.479645 420.308472,365.008026 
M198.195892,224.614243 
	C200.168350,224.315872 202.131119,223.897369 204.114746,223.737183 
	C233.319901,221.378784 262.592133,220.275803 291.874451,220.038208 
	C317.836670,219.827560 343.788177,221.100235 369.693756,222.834122 
	C382.778961,223.709930 395.816040,225.310059 408.872742,226.604279 
	C415.747498,227.285736 422.617645,228.013702 429.925934,228.765518 
	C429.600677,227.324677 429.533630,226.496719 429.231323,225.766113 
	C421.277863,206.543198 413.328033,187.318665 405.307251,168.123779 
	C403.227325,163.146240 399.406403,160.224182 394.051636,159.282379 
	C378.888367,156.615463 363.492889,156.737991 348.244659,156.615356 
	C298.132416,156.212265 247.985748,154.863312 197.934326,159.193985 
	C189.471207,159.926254 183.974045,163.217651 180.989258,171.297226 
	C176.952866,182.223434 172.471252,192.986282 168.117142,203.793640 
	C164.908356,211.758209 161.597900,219.681824 157.925323,228.614670 
	C171.721375,227.220474 184.498306,225.929260 198.195892,224.614243 
M164.796219,300.635803 
	C167.958649,300.637421 171.121078,300.641876 174.283508,300.639923 
	C177.371063,300.638000 179.894623,299.466888 181.168091,296.591309 
	C182.410172,293.786652 181.800980,291.021820 180.006409,288.583496 
	C178.169983,286.088348 175.555038,284.651001 172.739273,283.524078 
	C167.603928,281.468781 162.156586,280.673431 156.763199,279.797455 
	C148.169083,278.401581 139.648514,276.351349 130.398956,275.912079 
	C130.032532,281.982117 129.737213,287.598633 129.337830,293.207703 
	C129.112289,296.375244 130.421844,297.536407 133.628860,297.778931 
	C143.720505,298.542145 153.787399,299.632629 164.796219,300.635803 
M414.914062,284.341064 
	C413.654053,285.139954 412.285492,285.809937 411.154755,286.762268 
	C407.997772,289.421143 406.094452,292.824982 407.634308,296.900360 
	C409.044983,300.633820 412.643066,300.791351 416.094208,300.678040 
	C429.387512,300.241608 442.622437,299.027985 455.851746,297.727905 
	C457.386108,297.577148 459.315002,297.500366 459.380371,295.686340 
	C459.616730,289.128174 460.500702,282.489349 458.336700,275.581360 
	C443.878082,278.627747 429.356873,279.281647 414.914062,284.341064 
M149.595718,394.651672 
	C154.092834,394.633850 158.608063,394.862885 163.082367,394.534424 
	C168.419144,394.142639 171.042572,390.341278 170.951172,384.392426 
	C170.856781,378.249634 166.293045,380.772980 163.310883,380.299316 
	C162.010742,380.092834 160.649307,380.213409 159.318893,380.266022 
	C151.068756,380.592255 142.899048,379.756378 134.353134,377.810883 
	C134.353134,380.580963 134.311829,382.556152 134.360703,384.529114 
	C134.523163,391.087433 137.690109,394.357819 144.140427,394.629913 
	C145.637070,394.693054 147.138367,394.646484 149.595718,394.651672 
M421.095184,380.341522 
	C419.856171,380.443359 418.895203,380.847046 418.466553,382.194458 
	C416.506958,388.354095 420.399384,394.264099 426.993408,394.558777 
	C433.135071,394.833282 439.301636,394.754639 445.450806,394.590790 
	C450.158386,394.465363 454.095398,390.834808 454.536377,386.253510 
	C454.786102,383.658997 455.040497,380.973022 453.989014,377.735413 
	C443.517883,381.293884 432.703644,380.053741 421.095184,380.341522 
M452.220032,223.377655 
	C450.074982,223.709122 448.189789,224.573044 448.339142,227.047806 
	C448.566864,230.821640 449.820221,234.172363 453.483154,236.086182 
	C458.834442,238.882126 469.679626,237.715820 474.334656,233.819382 
	C478.215393,230.571091 477.488556,225.330490 472.807465,223.480698 
	C470.648987,222.627762 468.352753,222.292969 465.976410,222.485779 
	C461.683167,222.834091 457.379456,223.053452 452.220032,223.377655 
M141.003143,227.792816 
	C141.440033,223.489075 138.060089,223.575607 135.486191,223.429947 
	C130.031021,223.121277 124.549965,223.303864 119.082436,223.167984 
	C115.380745,223.076004 112.167137,224.060471 111.653305,228.087936 
	C111.178757,231.807495 113.544304,234.575974 116.990959,235.536499 
	C128.239044,238.671188 135.329651,239.127029 141.003143,227.792816 
z"/>
<path fill="#000000" opacity="1.000000" stroke="none" 
	d="
M215.727951,312.988312 
	C214.593567,307.894989 213.690308,303.157410 212.435455,298.514893 
	C207.874023,281.639313 221.850845,270.837769 234.266968,270.766449 
	C274.720398,270.534180 315.178223,270.454773 355.629730,270.822662 
	C369.548584,270.949219 382.185028,281.357635 377.437988,299.124329 
	C376.023682,304.417725 374.928986,309.806610 373.297699,315.029907 
	C369.356415,327.649811 360.555664,334.809235 347.343262,335.394928 
	C317.232239,336.729767 287.094147,335.741455 256.968323,335.933685 
	C251.151123,335.970825 245.297760,335.880066 239.519577,335.282532 
	C228.934067,334.187958 221.992172,327.969177 217.671982,318.543915 
	C216.912491,316.886932 216.415802,315.109497 215.727951,312.988312 
M226.937546,289.707855 
	C225.461670,296.083069 225.872025,296.658508 232.347580,296.660889 
	C274.165039,296.676361 315.982483,296.669586 357.799927,296.668762 
	C358.632874,296.668732 359.471649,296.713074 360.297729,296.633331 
	C363.953247,296.280396 365.556854,293.578003 363.851349,290.334442 
	C361.949951,286.718445 358.647491,285.390472 354.707153,285.390411 
	C315.222198,285.389893 275.737244,285.384796 236.252274,285.397430 
	C232.807648,285.398529 229.645767,286.204346 226.937546,289.707855 
M231.139587,313.702393 
	C234.064392,319.298309 238.703613,321.750092 244.986877,321.660126 
	C254.150574,321.528900 263.317596,321.632233 272.483215,321.631744 
	C296.647095,321.630524 320.811066,321.656982 344.974854,321.606781 
	C352.286133,321.591614 357.027618,317.984314 358.333008,311.690918 
	C357.846191,311.601746 357.362061,311.435638 356.877808,311.435303 
	C316.049286,311.406830 275.220734,311.383209 234.392227,311.411621 
	C233.110947,311.412506 231.166473,310.605377 231.139587,313.702393 
z"/>
</svg>