<svg version="1.1" id="Layer_1" xmlns="http://www.w3.org/2000/svg" xmlns:xlink="http://www.w3.org/1999/xlink" x="0px" y="0px"
	 width="100%" viewBox="0 0 432 416" enable-background="new 0 0 432 416" xml:space="preserve">
<path fill="#000000" opacity="1.000000" stroke="none" 
	d="
M235.622620,343.149536 
	C210.346497,345.733398 186.680374,341.825867 164.915634,329.340271 
	C132.270264,310.612854 113.519646,282.225739 108.600304,245.012360 
	C102.100861,195.845978 125.902191,149.269608 171.606842,128.249969 
	C237.202316,98.082504 316.576416,132.901093 331.883789,207.926834 
	C344.875153,271.601044 304.918579,329.977112 241.473892,342.211853 
	C239.682846,342.557220 237.869690,342.787964 235.622620,343.149536 
M162.297226,150.800690 
	C129.635803,176.426498 116.676178,209.899612 124.513779,250.492294 
	C134.750656,303.511383 186.830246,337.959503 239.724243,327.398285 
	C289.983368,317.363190 327.663788,268.336487 317.991241,213.877319 
	C310.242493,170.249435 273.914001,136.258499 228.448318,132.481796 
	C204.595016,130.500381 182.557709,136.433151 162.297226,150.800690 
z"/>
<path fill="#000000" opacity="1.000000" stroke="none" 
	d="
M262.677002,254.404495 
	C266.360504,257.990082 266.484131,261.764923 263.803223,265.420563 
	C261.648376,268.358856 256.141541,268.248413 252.465744,265.323395 
	C240.610855,255.889877 228.810577,246.387314 217.033249,236.856979 
	C214.019562,234.418304 212.626770,231.209274 212.639618,227.233643 
	C212.708008,206.078278 212.644638,184.922516 212.688629,163.767014 
	C212.699951,158.325607 215.152710,155.136963 219.319702,154.745071 
	C223.800156,154.323715 226.826401,157.049088 227.788437,162.616196 
	C228.125580,164.567200 228.140503,166.590057 228.142578,168.580261 
	C228.161255,186.570740 228.209946,204.561752 228.078568,222.551361 
	C228.054413,225.862656 229.046387,228.087173 231.732437,230.137283 
	C242.055267,238.016190 252.195740,246.134003 262.677002,254.404495 
z"/>
</svg>