<svg version="1.1" id="Layer_1" xmlns="http://www.w3.org/2000/svg" xmlns:xlink="http://www.w3.org/1999/xlink" x="0px" y="0px"
	 width="100%" viewBox="0 0 880 976" enable-background="new 0 0 880 976" xml:space="preserve">
<path fill="#000000" opacity="1.000000" stroke="none" 
	d="
M365.277405,726.762451 
	C327.822998,701.570435 294.386841,672.468018 266.687256,637.113892 
	C235.045349,596.728149 214.301437,551.158630 202.784454,501.289490 
	C197.623901,478.943970 192.975128,456.486389 190.954880,433.603638 
	C189.652924,418.856476 188.568939,404.075378 187.946350,389.285919 
	C186.516357,355.316315 187.187256,321.332031 187.971375,287.357086 
	C188.273636,274.259735 194.774673,269.535339 208.011826,270.238220 
	C230.455383,271.429932 252.924988,271.755524 275.329468,268.654358 
	C311.717834,263.617523 345.976715,252.544144 377.584656,233.644592 
	C396.552368,222.303116 413.276489,208.046219 429.803406,193.517548 
	C438.751831,185.651123 445.553253,185.702606 454.443665,193.668411 
	C474.218689,211.386795 494.718262,228.088852 518.410339,240.446045 
	C539.193420,251.285950 561.120239,258.793488 583.934265,264.166321 
	C614.764648,271.427094 645.901611,271.987915 677.244202,269.954102 
	C688.597351,269.217407 694.979919,275.313538 695.421753,286.616089 
	C696.482971,313.765381 696.564026,340.918549 696.115967,368.071472 
	C695.582947,400.366058 693.972778,432.613922 688.389648,464.490784 
	C681.216492,505.445648 670.678711,545.356873 651.778809,582.760010 
	C629.574646,626.702209 599.186462,664.010132 561.664490,695.611633 
	C529.522827,722.681763 493.959961,744.520813 456.748138,763.889954 
	C446.687653,769.126526 437.886627,768.944275 427.972046,763.708130 
	C406.590668,752.416077 385.735931,740.296021 365.277405,726.762451 
M546.634521,285.024323 
	C509.459229,272.670288 476.289673,253.372650 446.909332,227.503281 
	C441.573669,222.805252 441.589081,222.841125 436.124573,227.680710 
	C414.404083,246.917328 390.564362,262.870758 363.963165,274.644806 
	C340.391754,285.077850 315.913177,292.502197 290.563232,296.944244 
	C268.350586,300.836578 245.906967,302.061798 223.381622,301.175232 
	C218.494583,300.982880 217.157440,302.650696 217.244888,307.414337 
	C217.767548,335.887482 216.503128,364.373871 218.250046,392.846863 
	C219.288651,409.775116 219.733200,426.729095 222.417633,443.526520 
	C227.146378,473.115875 233.077286,502.413483 243.252686,530.687866 
	C258.174316,572.150696 280.736267,608.971741 310.756714,641.222168 
	C347.678345,680.886414 392.213226,710.153625 439.559753,735.600403 
	C441.978516,736.900330 443.899048,736.579285 446.086029,735.376892 
	C480.297058,716.567749 513.731750,696.540466 543.388306,670.912415 
	C599.618591,622.320007 636.434387,562.150146 652.353760,489.181976 
	C659.502136,456.417053 664.850037,423.503235 665.435913,390.002655 
	C665.907593,363.033569 667.452820,336.059387 666.046753,309.063690 
	C665.640564,301.265656 665.946106,301.070343 657.987854,301.308228 
	C620.174500,302.438293 583.304749,297.175903 546.634521,285.024323 
z"/>
<path fill="#000000" opacity="1.000000" stroke="none" 
	d="
M503.846191,436.846069 
	C519.686951,420.856903 535.293884,405.144409 550.882812,389.414062 
	C554.141541,386.125702 557.728516,383.736176 562.624268,383.629364 
	C569.329163,383.483185 574.224792,386.242035 577.157593,392.217407 
	C579.855164,397.713562 578.687805,404.679260 574.139954,409.334991 
	C564.832458,418.863434 555.370972,428.241425 545.976685,437.685211 
	C528.945740,454.806000 511.489014,471.528870 495.002930,489.159271 
	C476.807129,508.618103 457.727661,527.184692 439.193115,546.295715 
	C429.208130,556.591248 421.599518,556.466248 411.498352,546.345093 
	C395.498199,530.313232 379.233429,514.537415 363.524384,498.225922 
	C354.526276,488.882721 345.460205,479.609741 336.418610,470.310089 
	C329.933258,463.639679 329.621002,454.079315 335.282166,448.257721 
	C341.433014,441.932434 351.156586,441.976074 358.080780,448.771851 
	C371.749664,462.187164 385.653137,475.404785 398.621155,489.476807 
	C405.955261,497.435242 413.766998,504.883270 421.171448,512.745117 
	C422.400879,514.050537 423.489746,515.614014 426.107025,516.375244 
	C451.784973,490.114227 477.695465,463.615326 503.846191,436.846069 
z"/>
</svg>